<?xml version="1.0" encoding="utf-8"?>
<!-- Generator: Adobe Illustrator 22.1.0, SVG Export Plug-In . SVG Version: 6.00 Build 0)  -->
<svg version="1.1" id="Group_85" xmlns="http://www.w3.org/2000/svg" xmlns:xlink="http://www.w3.org/1999/xlink" x="0px" y="0px"
	 viewBox="0 0 60 60" style="enable-background:new 0 0 60 60;" xml:space="preserve">
<style type="text/css">
	.st0{fill:#EE582F;}
</style>
<g id="Group_84" transform="translate(13.739)">
	<g id="Group_83">
		<g id="Group_82">
			<path id="Path_218" class="st0" d="M2.6,17.3l11.7-1.7c0.2,0,0.4,0,0.5-0.2c0.1,0,0.3-0.2,0.4-0.2h0.1c0.1,0,0.3-0.2,0.4-0.3
				s0.3-0.2,0.4-0.3l0.1-0.2c0.6,0.6,1.3,1,2,1.1L30,17.3h0.3c0.7,0,1.4-0.4,1.8-0.9c0.5-0.6,0.8-1.4,0.8-2.2c0-1.2-0.5-2.2-1.5-2.8
				L20.5,5.6c-1.4-0.7-3-0.4-4.1,0.6l-0.1-0.2c-0.4-0.3-0.9-0.6-1.4-0.8c-0.1,0-0.3-0.2-0.5-0.2h-1.5c-0.1,0-0.4,0.2-0.5,0.2L1.4,11
				c-0.6,0.3-1.1,0.9-1.3,1.6C0,13-0.1,13.4-0.1,13.9C-0.3,16.1,1.1,17.5,2.6,17.3L2.6,17.3z"/>
			<path id="Path_219" class="st0" d="M26.3,18.8c-0.5,1.5-1.9,2.4-3.4,2.5H9.7c-1.6-0.1-3-1.1-3.5-2.7c-0.2-0.4-0.6-0.6-1-0.4
				c-0.1,0-0.1,0.1-0.2,0.1c-0.4,0.4-0.5,1.1-0.2,1.6c1.1,2.4,3,3.8,5,3.8h13.1c2.2-0.1,4.1-1.5,4.8-3.5c0.2-0.5,0.1-1.1-0.2-1.6
				c-0.2-0.3-0.6-0.4-0.9-0.2C26.4,18.5,26.3,18.6,26.3,18.8L26.3,18.8z"/>
		</g>
	</g>
</g>
<path id="Path_220" class="st0" d="M56.3,14.2c-1.8,0-3.4,1.3-3.8,3.1v0.3c0,6.1-4.9,11-11,11.1c-1.3-0.1-2.7-0.3-3.9-0.7L37,27.9
	c-2.3-0.9-4.8-1.3-7.2-1.3c-1.2,0-2.4,0.1-3.6,0.3c-0.5,0.2-1.1,0.2-1.6,0.3h-0.2c-0.6,0.1-1.2,0.4-1.8,0.7c-0.9,0.4-1.9,0.6-3,0.7
	h-1c-0.7,0-1.4,0-2.1-0.2c-2.1-0.5-4-1.5-5.6-3c-1.8-1.8-3-4.2-3.3-6.8v-1.2c0-0.2,0-0.4-0.2-0.5c-0.2-0.3-0.3-0.8-0.5-1.2
	c-0.7-1-1.9-1.7-3.1-1.7c-0.8,0-1.5,0.2-2.1,0.7c-1,0.7-1.7,1.9-1.6,3.1v19c0,0.8,0,1.6,0.2,2.3C1.1,44.5,5,48.8,10.1,50l17.2,4.5
	c0.4,0.1,0.9,0.2,1.3,0.2c0.5,0,0.8,0.2,1.3,0.2h0.2c0.9,0,1.9-0.1,2.8-0.3L50.1,50c6-1.5,10.1-6.9,10-13.1V18
	c0-2.1-1.6-3.8-3.6-3.8C56.4,14.2,56.4,14.2,56.3,14.2L56.3,14.2z M14.2,39c0.2-0.6,0.8-1,1.4-0.8c0,0,0,0,0,0l4.9,1.3
	c0.6,0.2,1,0.8,0.8,1.5c0,0,0,0,0,0c-0.2,0.5-0.6,0.8-1.1,0.8H20L15,40.5C14.4,40.3,14,39.6,14.2,39C14.2,39,14.2,39,14.2,39z
	 M23.4,46.7c-0.2,0.5-0.6,0.8-1.1,0.8h-0.3l-11.8-3.1c-0.6-0.2-1-0.8-0.8-1.5c0,0,0,0,0,0c0.2-0.6,0.8-1,1.4-0.8c0,0,0,0,0,0
	l11.8,3.1C23.2,45.5,23.5,46.1,23.4,46.7L23.4,46.7z"/>
</svg>
