<?xml version="1.0" encoding="utf-8"?>
<!-- Generator: Adobe Illustrator 22.1.0, SVG Export Plug-In . SVG Version: 6.00 Build 0)  -->
<svg version="1.1" id="Layer_1" xmlns="http://www.w3.org/2000/svg" xmlns:xlink="http://www.w3.org/1999/xlink" x="0px" y="0px"
	 viewBox="0 0 60 60" style="enable-background:new 0 0 60 60;" xml:space="preserve">
<style type="text/css">
	.st0{fill:#EE582F;}
</style>
<g id="Group_215" transform="translate(-149 -2050.798)">
	<g id="Group_190" transform="translate(149 2050.798)">
		<g id="Group_62">
			<g id="Group_59" transform="translate(29.067)">
				<g id="Group_58">
					<path id="Path_173" class="st0" d="M0.8,19c-0.1,0-0.3-0.1-0.4-0.3c-0.5-0.4-0.5-1.1-0.1-1.5c1.6-1.8,1.9-4.4,1-6.5
						C1,10,1.2,9.3,1.8,9.1c0.6-0.2,1.2,0,1.5,0.5c1.5,3,1,6.6-1.3,9.1C1.7,19,1.2,19.1,0.8,19z"/>
				</g>
			</g>
			<g id="Group_60" transform="translate(0 10.556)">
				<path id="Path_174" class="st0" d="M26.9,9L0.6,35.3c-0.8,0.7-0.8,1.9-0.2,2.6C0.5,38,0.6,38,0.6,38.1l0.8,1
					c1,1,2.5,1.1,3.6,0.3c6.6-4.9,12.5-10.8,17.3-17.5c0.5-0.6,0.6-1.5,0.4-2.2c-0.2-1.2,0.1-2.4,1-3.2l4.3-4.7L26.9,9z M21.2,20.5
					C16.2,27,10.3,32.9,3.8,38.1c-0.1,0-0.1,0.1-0.3,0.1c-0.2,0-0.3,0-0.4-0.1C3,37.9,3,37.7,3.3,37.4c6.4-5.1,12.2-11,17.3-17.4
					c0.2-0.2,0.5-0.2,0.7-0.1C21.4,20,21.4,20.3,21.2,20.5z"/>
			</g>
			<g id="Group_61" transform="translate(24.615 6.964)">
				<path id="Path_175" class="st0" d="M34.4,36.9l-0.6-0.7c-8.7-10.1-18.6-19-29.5-26.5L3.6,9.3C2.7,8.7,1.4,8.9,0.7,9.6
					c-0.9,0.9-0.9,2.3,0,3.2c0,0,0.1,0.1,0.1,0.1C11,21.4,20,31.2,27.5,42.1v0.1c1.3,1.9,3.9,2.4,5.8,1.1c0.3-0.2,0.5-0.4,0.7-0.6
					C35.7,41.2,35.8,38.6,34.4,36.9z M4.1,13.5c-0.5,0-1-0.4-1-1s0.4-1,1-1c0.5,0,1,0.4,1,1C5,13.1,4.7,13.5,4.1,13.5z M31,40.4
					c-0.6,0-1.1-0.5-1.1-1.1s0.5-1.1,1.1-1.1s1.1,0.5,1.1,1.1v0C32.2,39.9,31.7,40.4,31,40.4C31,40.4,31,40.4,31,40.4z"/>
			</g>
		</g>
	</g>
</g>
</svg>
