<?xml version="1.0" encoding="utf-8"?>
<!-- Generator: Adobe Illustrator 22.1.0, SVG Export Plug-In . SVG Version: 6.00 Build 0)  -->
<svg version="1.1" id="Group_111" xmlns="http://www.w3.org/2000/svg" xmlns:xlink="http://www.w3.org/1999/xlink" x="0px" y="0px"
	 viewBox="0 0 60 60" style="enable-background:new 0 0 60 60;" xml:space="preserve">
<style type="text/css">
	.st0{fill:#EE582F;}
</style>
<path id="Path_249" class="st0" d="M59.5,21.3c-0.1-0.4-0.4-0.7-0.8-0.7h-0.1c-0.4,0-0.8,0.4-0.8,0.8c0,2.6-1.6,5-4,6.1
	c-0.8,0.4-1.7,0.6-2.6,0.6c-2.7-0.1-5.1-1.6-6.2-4c-1.5-3.1-4.6-5.1-8-5.3c-1.1,0-2.2,0.3-3.2,0.7c-1.5,0.7-2.7,1.7-3.6,3
	c-0.8-1.4-2.1-2.5-3.6-3c-1-0.4-2.1-0.7-3.2-0.7c-3.5,0.1-6.6,2.1-8,5.3c-1.2,2.4-3.6,3.9-6.2,4c-0.9,0-1.8-0.2-2.6-0.6
	c-2.4-1-4-3.4-4-6.1c0-0.4-0.3-0.8-0.8-0.8c0,0,0,0-0.1,0H1.3c-0.4,0-0.8,0.3-0.8,0.7c-1.9,7.6,2,15.5,9.1,18.6
	c1.9,0.8,3.9,1.3,6,1.2c6,0.1,11.6-3.2,14.5-8.4c2.9,5.3,8.5,8.5,14.5,8.4c2.1,0,4.1-0.4,6-1.2C57.7,36.7,61.4,28.9,59.5,21.3
	L59.5,21.3z M3.7,29c0.2-0.1,0.5-0.1,0.7,0c1.7,1.6,3.9,2.5,6.2,2.4c7.2,0,8.2-6.4,8.2-9.1c0-0.2,0.1-0.4,0.3-0.4c0,0,0.1,0,0.1,0
	c0.2,0,0.4,0.2,0.4,0.4c0,2.4-0.8,10-9.1,10c-2.5,0.1-5-0.8-6.8-2.5C3.5,29.4,3.5,29.2,3.7,29L3.7,29z M19.5,36.2
	c-1.6,0.9-3.5,1.4-5.4,1.4C12,37.5,9.9,37,8,36c-2.1-1-3.9-2.4-5.3-4.3c-0.1-0.1-0.1-0.4,0.1-0.7c0.1-0.1,0.4-0.1,0.7,0.1
	c1.3,1.7,3,3.1,5,4c3.3,1.8,7.3,1.8,10.7,0.1c3.7-2.2,6.2-6.9,6.8-12.9c0-0.3,0.3-0.4,0.6-0.4s0.4,0.3,0.4,0.6
	C26.3,29.1,23.6,34,19.5,36.2L19.5,36.2z M40.2,21.8c0.2,0,0.4,0.1,0.4,0.3c0,0,0,0.1,0,0.1c0,2.8,1,9.1,8.2,9.1
	c2.3,0.1,4.6-0.8,6.2-2.4c0.2-0.2,0.5-0.2,0.7,0s0.2,0.5,0,0.7c-1.8,1.7-4.3,2.6-6.8,2.5c-8.3,0-9.1-7.6-9.1-10
	C39.8,22,40,21.8,40.2,21.8L40.2,21.8z M56.9,31.9c-1.4,1.8-3.2,3.3-5.3,4.3c-1.9,0.9-4,1.5-6.1,1.5c-1.9,0-3.8-0.4-5.4-1.4
	c-4.2-2.4-6.6-7.2-7.3-13.7c0-0.3,0.1-0.4,0.4-0.6c0.3,0,0.4,0.1,0.6,0.4c0.6,6.1,3,10.8,6.8,12.9c3,1.8,6.9,1.7,10.7-0.1
	c2-0.9,3.7-2.3,5-4c0.2-0.2,0.5-0.2,0.7-0.1C57,31.5,57,31.7,56.9,31.9L56.9,31.9z"/>
</svg>
