<svg width="200" height="200" xmlns="http://www.w3.org/2000/svg" viewBox="0 0 174.444 138.789"><defs><style>.cls-1{fill:#fff}.cls-2{fill:#151515}</style></defs><g id="Group_7" data-name="Group 7" transform="translate(0 .008)"><g id="Group_1" data-name="Group 1" transform="translate(0 5.648)"><path id="Path_1" data-name="Path 1" class="cls-1" d="M87.222 145.933L43.589 79.345 0 12.8h174.444l-43.633 66.545z" transform="translate(0 -12.8)"/></g><g id="Group_2" data-name="Group 2" transform="translate(7.949 51.296)"><path id="Path_2" data-name="Path 2" class="cls-2" d="M32.75 140.7v3.842c0 4.637-2.517 7.287-7.375 7.287S18 149.184 18 144.546v-15.06c0-4.637 2.517-7.287 7.375-7.287s7.375 2.65 7.375 7.287v2.826h-4.681v-3.091c0-2.076-.972-2.871-2.561-2.871s-2.561.795-2.561 2.871v15.634c0 2.076.972 2.826 2.561 2.826s2.561-.751 2.561-2.826V140.7z" transform="translate(-18 -122.2)"/><path id="Path_3" data-name="Path 3" class="cls-2" d="M71.134 151.927a8.318 8.318 0 0 1-.442-3.533v-4.549c0-2.694-.972-3.666-3.224-3.666h-1.722v11.792H60.8V123h7.464c5.123 0 7.331 2.208 7.331 6.669v2.252c0 2.959-1.016 4.9-3.224 5.874 2.473.972 3.268 3.136 3.268 6.139v4.46a8.164 8.164 0 0 0 .53 3.533zm-5.388-24.775v8.877h1.943c1.855 0 2.959-.751 2.959-3.047v-2.872c0-2.076-.751-2.959-2.517-2.959h-2.385z" transform="translate(-41.898 -122.647)"/><path id="Path_4" data-name="Path 4" class="cls-2" d="M109.246 135.189h6.8v4.151h-6.8v8.479h8.568v4.151H104.3V123h13.514v4.151h-8.568v8.038z" transform="translate(-66.187 -122.647)"/><path id="Path_5" data-name="Path 5" class="cls-2" d="M153.9 136.514l-1.811 15.413h-6.8L141.8 123h4.814l2.65 22.832L151.648 123h4.77l2.473 22.965L161.453 123h4.328l-3.489 28.927h-6.58z" transform="translate(-87.126 -122.647)"/><path id="Path_6" data-name="Path 6" class="cls-2" d="M236.35 140.7v3.842c0 4.637-2.517 7.287-7.375 7.287s-7.375-2.65-7.375-7.287v-15.06c0-4.637 2.517-7.287 7.375-7.287s7.375 2.65 7.375 7.287v2.826h-4.681v-3.091c0-2.076-.972-2.871-2.561-2.871s-2.561.795-2.561 2.871v15.634c0 2.076.972 2.826 2.561 2.826s2.561-.751 2.561-2.826V140.7z" transform="translate(-131.684 -122.2)"/><path id="Path_7" data-name="Path 7" class="cls-2" d="M268.846 123v22.3c0 2.076.972 2.826 2.561 2.826s2.561-.751 2.561-2.826V123h4.681v22.037c0 4.637-2.517 7.287-7.375 7.287s-7.375-2.65-7.375-7.287V123z" transform="translate(-155.303 -122.647)"/><path id="Path_8" data-name="Path 8" class="cls-2" d="M304.2 123h15.28v4.151h-5.167v24.82h-4.9v-24.82h-5.167V123z" transform="translate(-177.806 -122.647)"/><path id="Path_9" data-name="Path 9" class="cls-2" d="M352.019 122.3c4.814 0 7.287 2.65 7.287 7.287v.927h-4.681v-1.192c0-2.076-.883-2.871-2.473-2.871s-2.473.795-2.473 2.871c0 5.962 9.672 7.066 9.672 15.325 0 4.637-2.517 7.287-7.375 7.287s-7.375-2.65-7.375-7.287v-1.767h4.681v2.076c0 2.076.972 2.826 2.561 2.826s2.561-.751 2.561-2.826c0-5.962-9.672-7.066-9.672-15.325 0-4.681 2.474-7.331 7.287-7.331z" transform="translate(-200.364 -122.256)"/></g><g id="Group_3" data-name="Group 3" transform="translate(48.27 32.471)"><path id="Path_10" data-name="Path 10" class="cls-2" d="M114.82 79.573v.4a2.052 2.052 0 0 1-1.192 2.164 2.181 2.181 0 0 1 1.369 2.3v.883c0 1.678-.972 2.561-2.782 2.561H109.3V77.1h2.782c1.899 0 2.738.839 2.738 2.473zm-3.666-.927v2.826h.707c.707 0 1.1-.265 1.1-1.148v-.618c0-.751-.265-1.1-.927-1.1h-.883zm0 4.372v3.312h1.06c.618 0 .972-.265.972-1.06v-.927c0-1.016-.353-1.325-1.192-1.325z" transform="translate(-109.3 -76.967)"/><path id="Path_11" data-name="Path 11" class="cls-2" d="M132 87.876h-1.855l-.309-1.943h-2.252l-.309 1.943H125.6l1.9-10.776h2.694zm-4.2-3.4h1.766l-.883-5.432z" transform="translate(-118.401 -76.967)"/><path id="Path_12" data-name="Path 12" class="cls-2" d="M147.842 87.876a3.157 3.157 0 0 1-.177-1.325v-1.678c0-1.016-.353-1.369-1.192-1.369h-.618v4.372H144V77.1h2.782c1.9 0 2.738.795 2.738 2.473v.839a2.213 2.213 0 0 1-1.192 2.208c.927.353 1.237 1.192 1.237 2.3v1.68a2.548 2.548 0 0 0 .221 1.325h-1.943zm-2.032-9.23v3.312h.707c.707 0 1.1-.265 1.1-1.148v-1.06c0-.751-.265-1.1-.927-1.1z" transform="translate(-128.675 -76.967)"/><path id="Path_13" data-name="Path 13" class="cls-2" d="M166.62 79.573v.4a2.052 2.052 0 0 1-1.192 2.164 2.181 2.181 0 0 1 1.369 2.3v.883c0 1.678-.972 2.561-2.782 2.561H161.1V77.1h2.782c1.899 0 2.738.839 2.738 2.473zm-3.666-.927v2.826h.707c.707 0 1.1-.265 1.1-1.148v-.618c0-.751-.265-1.1-.927-1.1h-.883zm0 4.372v3.312h1.06c.618 0 .972-.265.972-1.06v-.927c0-1.016-.353-1.325-1.192-1.325z" transform="translate(-138.224 -76.967)"/><path id="Path_14" data-name="Path 14" class="cls-2" d="M180.255 81.649h2.517v1.546h-2.517v3.135h3.18v1.546H178.4V77.1h5.035v1.546h-3.18z" transform="translate(-147.883 -76.967)"/><path id="Path_15" data-name="Path 15" class="cls-2" d="M198.142 87.876a3.159 3.159 0 0 1-.177-1.325v-1.678c0-1.016-.353-1.369-1.192-1.369h-.618v4.372H194.3V77.1h2.782c1.9 0 2.738.795 2.738 2.473v.839a2.213 2.213 0 0 1-1.192 2.208c.927.353 1.237 1.192 1.237 2.3v1.68a2.549 2.549 0 0 0 .221 1.325h-1.943zm-1.987-9.23v3.312h.707c.707 0 1.1-.265 1.1-1.148v-1.06c0-.751-.265-1.1-.927-1.1z" transform="translate(-156.761 -76.967)"/><path id="Path_16" data-name="Path 16" class="cls-2" d="M221.438 76.8a2.4 2.4 0 0 1 2.694 2.694v.353h-1.722v-.442c0-.751-.353-1.06-.927-1.06s-.927.309-.927 1.06c0 2.208 3.621 2.65 3.621 5.7a2.738 2.738 0 0 1-5.476 0v-.665h1.722v.751c0 .751.353 1.06.972 1.06.574 0 .972-.265.972-1.06 0-2.208-3.621-2.65-3.621-5.7a2.4 2.4 0 0 1 2.692-2.691z" transform="translate(-170.386 -76.8)"/><path id="Path_17" data-name="Path 17" class="cls-2" d="M237.155 87.876H235.3V77.1h1.855v4.637h2.076V77.1h1.9v10.776h-1.9v-4.593h-2.076z" transform="translate(-179.655 -76.967)"/><path id="Path_18" data-name="Path 18" class="cls-2" d="M253.1 79.594a2.784 2.784 0 0 1 5.564 0V85.2a2.784 2.784 0 0 1-5.564 0zm1.855 5.7c0 .751.353 1.06.972 1.06.574 0 .972-.309.972-1.06v-5.83c0-.751-.353-1.06-.972-1.06-.574 0-.972.309-.972 1.06z" transform="translate(-189.594 -76.856)"/><path id="Path_19" data-name="Path 19" class="cls-2" d="M275.776 79.75v1.413c0 1.722-.883 2.65-2.738 2.65h-.883v4.063H270.3V77.1h2.694c1.899 0 2.782.927 2.782 2.65zm-3.621-1.1v3.666h.883c.574 0 .883-.265.883-1.016v-1.639c0-.751-.309-1.016-.883-1.016z" transform="translate(-199.198 -76.967)"/></g><g id="Group_5" data-name="Group 5" transform="translate(73.885 -.008)"><g id="Group_4" data-name="Group 4"><path id="Path_20" data-name="Path 20" class="cls-2" d="M167.918 40.555l-.618.53 11.35-3.4.883-2.385z" transform="translate(-167.3 -19.707)"/><path id="Path_21" data-name="Path 21" class="cls-2" d="M202.4 31.95l7.243-.265c.088.088.132.177.221.221a3.624 3.624 0 0 0 4.2.309 3.492 3.492 0 0 0 1.634-1.855 2.425 2.425 0 0 0-.221-2.208 1.729 1.729 0 0 0-.353-.442 3.392 3.392 0 0 0-3.141-.71c-.044-.044-.088-.132-.132-.177a.815.815 0 0 0-1.1 0 .69.69 0 0 0-.177.795 3.282 3.282 0 0 0-1.281 1.634 2.179 2.179 0 0 0-.132 1.281l-5.83-.177zm7.728-2.385a2.661 2.661 0 0 1 1.237-1.369 2.7 2.7 0 0 1 3.047.177 1.921 1.921 0 0 1 .265.309 1.632 1.632 0 0 1 .132 1.5 2.661 2.661 0 0 1-1.237 1.369 2.7 2.7 0 0 1-3.047-.177 1.921 1.921 0 0 1-.265-.309 1.514 1.514 0 0 1-.131-1.5z" transform="translate(-186.899 -14.856)"/><path id="Path_22" data-name="Path 22" class="cls-2" d="M191.506.084c-.044.177.795 2.252-.044 3.047a4.187 4.187 0 0 0-.883.883 2.994 2.994 0 0 0 .177 3.886l.088.088-.486 7.508L185.5 28.79l.751-.883 6.849-12.19-1.148-1.148.442-5.918a3.9 3.9 0 0 0 1.237-.088 3.835 3.835 0 0 0 2.069-1.457 2.994 2.994 0 0 0-.177-3.886 1.961 1.961 0 0 0-.486-.353 3.331 3.331 0 0 0-1.281-.4c-1.148-.442-1.192-1.9-1.325-2.208-.131-.259-.881-.352-.925-.175zm.4 15.59a.427.427 0 0 1 0 .618.537.537 0 0 1-.707 0 .427.427 0 0 1 0-.618.537.537 0 0 1 .701-.001zM192.919 3.4a2.091 2.091 0 0 1 1.634.177 1.871 1.871 0 0 1 .309.221 2.129 2.129 0 0 1 .088 2.782 2.97 2.97 0 0 1-1.546 1.1 2.091 2.091 0 0 1-1.634-.177 1.869 1.869 0 0 1-.309-.221 2.129 2.129 0 0 1-.088-2.782 2.807 2.807 0 0 1 1.546-1.1z" transform="translate(-177.462 .008)"/></g></g><g id="Group_6" data-name="Group 6" transform="translate(16.826 15.32)"><path id="Path_23" data-name="Path 23" class="cls-2" d="M273.909 62.655h2.561L294.047 34.7H242.2v2.076h47.961z" transform="translate(-152.063 -34.7)"/><path id="Path_24" data-name="Path 24" class="cls-2" d="M190.8 216.3l-17.974 28.618-18.02-28.618H152.2l20.624 32.769L193.4 216.3z" transform="translate(-101.81 -141.772)"/><path id="Path_25" data-name="Path 25" class="cls-2" d="M58.238 62.655L41.986 36.776h43.059V34.7H38.1l17.577 27.955z" transform="translate(-38.1 -34.7)"/></g></g></svg>
