<?xml version="1.0" encoding="utf-8"?>
<!-- Generator: Adobe Illustrator 22.1.0, SVG Export Plug-In . SVG Version: 6.00 Build 0)  -->
<svg version="1.1" id="Layer_1" xmlns="http://www.w3.org/2000/svg" xmlns:xlink="http://www.w3.org/1999/xlink" x="0px" y="0px"
	 viewBox="0 0 60 60" style="enable-background:new 0 0 60 60;" xml:space="preserve">
<style type="text/css">
	.st0{fill:#EE582F;}
</style>
<g id="Group_214" transform="translate(-163 -1008.602)">
	<g id="Group_189" transform="translate(163 1008.602)">
		<g id="Group_87">
			<path id="Path_222" class="st0" d="M20.1,32.7c-0.3-0.3-0.8-0.3-1.1,0l-9.6,9.6c-1-0.5-2.1-0.8-3.2-0.8c-1.6,0-3.2,0.7-4.4,1.8
				C0.6,44.5,0,46.1,0,47.7c0,1.6,0.7,3.2,1.8,4.4c1.2,1.1,2.8,1.8,4.4,1.8c1.6,0,3.2-0.7,4.4-1.8c2-2.1,2.4-5.3,0.8-7.7l9.6-9.6
				c0.3-0.3,0.3-0.8,0-1.1L20.1,32.7z M8.5,50.1c-0.6,0.6-1.5,1-2.3,1c-1.9,0-3.4-1.5-3.4-3.4c0-0.9,0.4-1.8,1-2.4
				c0.6-0.6,1.5-1,2.3-1c1.9,0,3.4,1.5,3.4,3.4C9.6,48.6,9.2,49.4,8.5,50.1L8.5,50.1z"/>
			<path id="Path_223" class="st0" d="M29.9,27c0.3,0.3,0.8,0.2,1,0c0,0,0-0.1,0.1-0.1L47.9,5.5c0.1-0.3,0.3-0.6,0.1-0.7
				c-0.2-0.4-0.6-0.7-1.1-0.7L46.7,4L27.3,23.4c-0.3,0.3-0.3,0.8,0,1.1L29.9,27z"/>
		</g>
		<path id="Path_224" class="st0" d="M59.6,51.9c-0.5-0.5-1.4-0.6-1.9,0c0,0,0,0,0,0c-0.9,0.9-2.2,1.5-3.5,1.4
			c-1.3,0-2.6-0.5-3.5-1.4l-1-1c1.5-2.5,1.2-5.6-0.8-7.7c-2.1-2-5.2-2.4-7.7-1L2.8,4L2.5,4.1C2.1,4.2,1.6,4.5,1.4,4.8
			c-0.1,0.2,0,0.5,0.1,0.7l19.4,24c1,1.3,2.6,2,4.2,2h0.1c1,0,1.7,0.6,2.7,1.5l11,11c-1.6,2.5-1.2,5.8,0.8,7.9
			c1.2,1.2,2.8,1.8,4.5,1.8c1.2,0,2.4-0.3,3.4-1l1,1c3,3,7.9,3,11,0c0.3-0.3,0.4-0.6,0.4-1C60,52.4,59.9,52.1,59.6,51.9L59.6,51.9z
			 M23.9,29.9c-0.4-0.4-0.4-1-0.1-1.4l1.4,1.4c-0.3,0.3-0.8,0.4-1.1,0.2C24,30,23.9,29.9,23.9,29.9z M25.6,29.7l-1.4-1.4
			c0.4-0.3,1-0.2,1.4,0.1C25.8,28.8,25.8,29.3,25.6,29.7L25.6,29.7z M46.8,50c-0.6,0.6-1.5,1-2.4,1c-0.9,0-1.8-0.4-2.4-1
			c-0.6-0.6-1-1.5-1-2.4c0-0.9,0.4-1.8,1-2.4c0.6-0.6,1.5-1,2.4-1c0.9,0,1.8,0.4,2.4,1c0.6,0.7,1,1.5,1,2.4
			C47.8,48.5,47.5,49.4,46.8,50L46.8,50z"/>
	</g>
</g>
</svg>
